<svg width="302" height="261" viewBox="0 0 302 261" fill="none" xmlns="http://www.w3.org/2000/svg">
<path d="M40.4019 201.901C40.4019 201.901 69.698 238.998 119.764 240.506C169.831 242.014 214.605 210.782 251.542 186.481C288.48 162.18 300.601 121.466 282.158 87.8854C263.715 54.3048 230.25 65.81 190.087 42.2122C149.923 18.6145 142.724 6.23922 96.1014 8.35613C49.4786 10.473 10.9464 60.264 12.6428 116.043C14.3393 171.822 40.4019 201.901 40.4019 201.901Z" fill="#637381"/>
<path opacity="0.7" d="M40.4019 201.901C40.4019 201.901 69.698 238.998 119.764 240.506C169.831 242.014 214.605 210.782 251.542 186.481C288.48 162.18 300.601 121.466 282.158 87.8854C263.715 54.3048 230.25 65.81 190.087 42.2122C149.923 18.6145 142.724 6.23922 96.1014 8.35613C49.4786 10.473 10.9464 60.264 12.6428 116.043C14.3393 171.822 40.4019 201.901 40.4019 201.901Z" fill="white"/>
<path d="M49.5088 18.3317C49.4653 18.3317 50.0163 15.6276 50.067 15.4318C50.6905 13.4962 53.0394 10.1323 55.3086 10.1395C55.6865 10.1502 56.058 10.2404 56.3988 10.4044C56.7396 10.5683 57.0419 10.8023 57.2862 11.091C57.5304 11.3797 57.711 11.7166 57.8162 12.0798C57.9214 12.4431 57.9488 12.8244 57.8967 13.1989C57.73 14.7938 56.2945 16.1568 54.9968 16.9398C53.4744 17.8895 49.5088 18.3317 49.5088 18.3317Z" fill="#637381"/>
<path d="M45.1082 0.149479C47.2831 0.917948 48.3126 4.87629 48.2401 6.9062C48.2401 7.0802 47.8341 9.80608 47.7978 9.80608H47.7543C47.9211 10.4296 48.1023 11.1038 48.2836 11.8432C48.6026 13.2062 48.9505 14.7431 49.2188 16.4541C49.5298 18.2868 49.7331 20.1363 49.8278 21.9928C49.9434 24.0732 49.873 26.1597 49.6175 28.2276C49.6141 28.2516 49.6141 28.276 49.6175 28.3001C49.9003 27.6984 50.7412 26.0309 50.8137 25.9149C51.9302 24.2185 55.0765 21.5651 57.2732 22.1958C57.6339 22.3058 57.9673 22.4906 58.2517 22.7382C58.5362 22.9857 58.7652 23.2905 58.9239 23.6325C59.0826 23.9746 59.1674 24.3462 59.1728 24.7233C59.1782 25.1003 59.104 25.4743 58.9551 25.8207C58.3752 27.3141 56.6352 28.2493 55.178 28.6626C53.5324 29.1338 49.864 28.5828 49.574 28.5321C49.264 30.6309 48.8135 32.7066 48.2256 34.7451C47.8873 35.934 47.5199 37.1206 47.1236 38.3047C47.3774 37.7899 47.6166 37.3332 47.6528 37.2752C48.7693 35.5715 51.9229 32.9254 54.1123 33.5561C54.473 33.6661 54.8064 33.8509 55.0909 34.0985C55.3753 34.346 55.6043 34.6508 55.763 34.9928C55.9217 35.3349 56.0066 35.7065 56.0119 36.0836C56.0173 36.4606 55.9431 36.8345 55.7943 37.181C55.2143 38.6744 53.4744 39.6096 52.0172 40.0229C50.56 40.4361 47.3991 40.0229 46.5726 39.9141L46.1159 41.2771C45.3909 43.452 44.6007 45.6269 43.941 47.7583C43.7018 48.4833 43.4915 49.2662 43.2813 50.0202C43.5133 49.5635 43.709 49.1792 43.7453 49.1212C44.8545 47.4248 48.0081 44.7714 50.1975 45.4021C50.5575 45.5133 50.8902 45.6987 51.1742 45.9463C51.4582 46.1939 51.6871 46.4983 51.8462 46.8398C52.0054 47.1813 52.0912 47.5524 52.0982 47.9291C52.1051 48.3058 52.0331 48.6798 51.8867 49.027C51.3067 50.5277 49.5595 51.4556 48.1023 51.8761C46.6451 52.2966 43.796 51.9269 42.81 51.7891C42.6143 52.5648 42.4258 53.3406 42.2736 54.1018C42.1793 54.631 42.0561 55.124 41.9908 55.6532L41.7733 57.2119C41.6718 58.2051 41.5558 59.2273 41.4833 60.1988C41.4254 60.873 41.3818 61.5182 41.3384 62.1707C41.5703 61.4457 42.0633 59.945 42.0633 59.829C42.8662 58.2341 44.0642 56.8713 45.5432 55.8707C45.622 55.6859 45.7217 55.5108 45.8404 55.3487C46.0457 55.032 46.3154 54.7621 46.6321 54.5568C46.9488 54.3514 47.3052 54.2152 47.6782 54.1571C48.0511 54.0989 48.4321 54.1201 48.7962 54.2193C49.1604 54.3184 49.4996 54.4933 49.7915 54.7325C51.5169 56.2187 51.082 60.293 50.2917 62.1634C50.2482 62.2722 49.603 63.4104 49.1898 64.1281C49.5015 63.7439 49.7915 63.3669 50.1177 62.9827C50.7485 62.2069 51.4009 61.453 52.0969 60.641L53.1626 59.4883C53.5106 59.0968 53.9311 58.7633 54.3153 58.3356C55.2215 57.4584 56.1857 56.6102 57.179 55.7765C56.5047 55.2255 54.1268 53.2246 53.4454 51.8616C52.7639 50.4987 52.2782 48.592 52.9886 47.1493C53.1449 46.8053 53.3717 46.4979 53.6544 46.2471C53.937 45.9963 54.2692 45.8078 54.6295 45.6936C54.9897 45.5795 55.3699 45.5423 55.7454 45.5845C56.1209 45.6267 56.4833 45.7473 56.8092 45.9386C58.7304 47.1493 58.9261 51.2454 58.4259 53.1883C58.4259 53.3116 57.8749 54.6818 57.5777 55.4285C58.1794 54.9355 58.7739 54.4425 59.3974 53.9785C61.1953 52.5938 63.0585 51.2381 64.9071 49.8825L66.5963 48.6355C66.3571 48.4398 63.4862 46.1199 62.7177 44.5902C62.0435 43.2345 61.5505 41.3205 62.261 39.8851C62.4164 39.5403 62.6427 39.2321 62.9253 38.9807C63.2078 38.7292 63.5402 38.5402 63.9007 38.426C64.2613 38.3117 64.6419 38.2748 65.0177 38.3176C65.3934 38.3604 65.756 38.482 66.0816 38.6744C68.01 39.8779 68.1985 43.9739 67.6983 45.9241C67.662 46.0691 66.9153 48.041 66.7051 48.534C67.9375 47.6133 69.1627 46.6853 70.3299 45.7139C71.918 44.4193 73.4195 43.0219 74.8247 41.5308C74.716 41.4365 71.7074 39.0296 70.9244 37.471C70.2429 36.1153 69.7572 34.1941 70.4677 32.7587C70.6231 32.4148 70.8492 32.1076 71.1312 31.8568C71.4132 31.6061 71.7448 31.4175 72.1045 31.3033C72.4641 31.1891 72.8438 31.1519 73.2188 31.1941C73.5938 31.2362 73.9557 31.3568 74.281 31.5479C76.2094 32.7586 76.4052 36.8547 75.9049 38.7977C75.9049 38.9281 75.3032 40.4288 75.0205 41.1393L75.1292 41.2118C76.5026 39.6705 77.7374 38.0112 78.8193 36.253C79.4283 35.2888 79.9503 34.3391 80.4433 33.4039C79.8343 33.0124 77.0866 31.1927 76.2239 29.866C75.3612 28.5393 74.7087 26.7414 75.2525 25.2335C75.369 24.874 75.5599 24.5431 75.8129 24.2624C76.0658 23.9817 76.3751 23.7574 76.7205 23.6042C77.0659 23.451 77.4397 23.3723 77.8176 23.3732C78.1955 23.3741 78.5689 23.4546 78.9136 23.6095C80.9652 24.6027 81.6032 28.6843 81.3205 30.6635C81.3205 30.7722 81.0305 31.8669 80.8202 32.6572C81.0305 32.2294 81.2625 31.7944 81.4582 31.3812C82.1832 29.837 82.7994 28.3726 83.3069 27.0314C83.5969 26.3064 83.8361 25.6177 84.0319 24.9797C83.6331 24.2547 82.0817 21.4709 81.9294 19.9049C81.7772 18.339 82.0237 16.4396 83.2054 15.3521C83.4745 15.0873 83.7962 14.8821 84.1498 14.7499C84.5034 14.6176 84.8809 14.5613 85.2577 14.5846C85.6344 14.6078 86.0021 14.7101 86.3368 14.8848C86.6714 15.0595 86.9655 15.3027 87.2 15.5986C88.5629 17.4183 87.2652 21.3114 86.0908 22.9643C85.9893 23.1093 84.1406 25.1392 84.1189 25.1392V25.0957C83.9159 25.7119 83.6984 26.3717 83.4374 27.0821C82.9589 28.4016 82.4007 29.8805 81.683 31.432C80.9242 33.1295 80.0698 34.7827 79.1238 36.3835C78.0681 38.1791 76.8551 39.8773 75.499 41.4583L75.4482 41.5163C76.0137 41.1683 77.6231 40.2403 77.7609 40.1823C79.6313 39.3849 83.7056 38.9354 85.1991 40.6463C85.4394 40.9375 85.6158 41.276 85.7167 41.6399C85.8176 42.0037 85.8408 42.3847 85.7847 42.7581C85.7286 43.1315 85.5946 43.4889 85.3912 43.807C85.1879 44.1252 84.9199 44.3969 84.6046 44.6047C83.2924 45.5326 81.3277 45.3296 79.8778 44.8947C78.2466 44.3727 75.528 41.8933 75.2815 41.6903C73.8655 43.27 72.3444 44.7523 70.7287 46.1271C69.7934 46.9318 68.822 47.7148 67.8288 48.4905C68.329 48.2005 68.7785 47.9468 68.8437 47.9178C70.7069 47.1203 74.7812 46.6708 76.2747 48.3818C76.5161 48.6725 76.6935 49.0109 76.795 49.3749C76.8965 49.739 76.92 50.1203 76.8639 50.4941C76.8078 50.8678 76.6733 51.2254 76.4693 51.5436C76.2653 51.8617 75.9964 52.1331 75.6802 52.3401C74.3753 53.2681 72.4033 53.0651 70.9606 52.6301C69.518 52.1951 67.1038 50.0927 66.4803 49.5345C66.0961 49.8244 65.7554 50.1217 65.3421 50.4189C63.5225 51.8109 61.7173 53.1956 59.9411 54.6165C59.3249 55.1095 58.7376 55.6242 58.1432 56.1389L59.0276 55.646C60.8908 54.8485 64.9651 54.3918 66.4586 56.1027C66.6991 56.3945 66.8756 56.7336 66.9765 57.098C67.0775 57.4624 67.1007 57.8439 67.0446 58.2179C66.9886 58.5919 66.8545 58.9498 66.6511 59.2686C66.4477 59.5874 66.1796 59.8598 65.8641 60.0683C64.5591 60.9962 62.5872 60.7932 61.1445 60.351C59.7019 59.9088 57.5197 58.0166 56.7947 57.3569C56.2075 57.9006 55.613 58.4443 55.0693 58.9953C54.6996 59.3796 54.3443 59.7203 53.9818 60.1335L52.9379 61.308C52.3072 62.0837 51.6474 62.8739 51.0457 63.6424C50.6252 64.1716 50.2337 64.6863 49.8423 65.2083C50.444 64.7008 51.6619 63.7584 51.7707 63.6714C53.4889 62.5984 57.4544 61.4965 59.1871 63.0044C59.4679 63.2566 59.6925 63.5652 59.8462 63.9099C60 64.2546 60.0794 64.6279 60.0794 65.0053C60.0794 65.3828 60 65.756 59.8462 66.1008C59.6925 66.4455 59.4679 66.754 59.1871 67.0062C58.0272 68.1227 56.0552 68.2387 54.5618 68.0067C52.9089 67.7457 49.922 65.8318 49.5523 65.5563C48.8998 66.419 48.2763 67.2527 47.6963 68.0575C45.6882 70.8341 44.1222 73.2265 43.0493 74.9084L42.9405 75.0824L41.5486 74.4082L41.7661 74.0747C42.8898 72.3928 44.5282 70.0149 46.6161 67.26C47.2759 66.3828 47.9936 65.4621 48.7403 64.5269C47.9637 63.6783 47.2375 62.7851 46.5654 61.8517C44.9632 62.4824 41.6428 62.5042 41.2079 62.5042C41.1426 63.5771 41.0846 64.6283 41.0411 65.6143C40.8961 69.0362 40.9106 71.8925 40.9469 73.8935V74.1255L39.4172 73.4005C39.4172 71.4141 39.4969 68.7317 39.6999 65.5563C39.7652 64.4689 39.8594 63.3017 39.9682 62.1055C39.5404 61.9967 36.0823 61.1122 34.7774 60.0683C33.5957 59.1186 32.3487 57.5889 32.3922 55.9794C32.3893 55.6019 32.4659 55.2279 32.6171 54.8819C32.7683 54.5359 32.9906 54.2256 33.2696 53.9713C33.5486 53.7169 33.8781 53.5241 34.2365 53.4054C34.595 53.2868 34.9744 53.2449 35.3501 53.2826C37.6048 53.5725 39.4969 57.2119 39.8667 59.2056C39.8667 59.3288 39.9827 60.6555 40.0262 61.453C40.0769 60.9672 40.1132 60.4888 40.1711 60.003C40.2654 59.0098 40.3959 58.0239 40.5336 56.9582C40.6134 56.4434 40.7004 55.9287 40.7801 55.4067C40.8599 54.8847 40.9976 54.3483 41.1064 53.8118C41.3819 52.5793 41.7153 51.3396 42.0851 50.0999C41.2151 50.0129 38.134 49.6505 36.8145 48.8892C35.4951 48.128 34.0307 46.8086 33.8349 45.2136C33.7743 44.8406 33.793 44.4589 33.8898 44.0936C33.9866 43.7282 34.1593 43.3873 34.3966 43.0932C34.634 42.7991 34.9307 42.5583 35.2673 42.3865C35.604 42.2147 35.9731 42.1158 36.3506 42.0963C38.6197 42.0455 41.0411 45.3514 41.7081 47.2726C41.7516 47.3885 42.0778 48.8167 42.2446 49.607C42.4693 48.882 42.6868 48.1208 42.9695 47.374C43.6945 45.1991 44.5137 43.075 45.3112 40.9218C45.5577 40.2621 45.7897 39.6024 46.0362 38.9426C45.7244 38.9426 42.0488 38.5584 40.5699 37.7102C39.2577 36.9852 37.7932 35.6295 37.5903 34.0346C37.5308 33.6617 37.5503 33.2805 37.6476 32.9156C37.7448 32.5507 37.9176 32.2103 38.1548 31.9164C38.3919 31.6226 38.6881 31.3818 39.0242 31.2096C39.3603 31.0375 39.7289 30.9379 40.1059 30.9172C42.3823 30.8665 44.8037 34.1723 45.4707 36.0935C45.5214 36.2385 45.9854 38.2684 46.0797 38.8194C46.6016 37.3695 47.1164 35.9195 47.5296 34.4696C48.1427 32.5121 48.6271 30.5166 48.9795 28.4958C48.8345 28.4958 44.9995 28.1333 43.4843 27.2634C42.1648 26.5384 40.7004 25.1827 40.5046 23.5878C40.444 23.2151 40.4627 22.8338 40.5595 22.4688C40.6564 22.1039 40.8292 21.7635 41.0666 21.4699C41.3041 21.1763 41.6009 20.9362 41.9375 20.7652C42.2742 20.5942 42.6431 20.4962 43.0203 20.4776C45.2894 20.4197 47.7108 23.7255 48.3778 25.6467C48.4213 25.7699 48.7838 27.3359 48.936 28.0898H49.0593C49.3587 26.0478 49.4752 23.9831 49.4073 21.9203C49.4073 20.7821 49.2985 19.7019 49.1898 18.6507C48.4648 18.6507 45.1734 18.6507 43.7235 18.02C42.2736 17.3893 40.7294 16.2583 40.3524 14.6996C40.2518 14.3345 40.2295 13.9523 40.2869 13.5779C40.3443 13.2036 40.4801 12.8456 40.6854 12.5273C40.8907 12.2091 41.1609 11.9378 41.4783 11.7312C41.7957 11.5246 42.1532 11.3874 42.5273 11.3285C44.782 11.0168 47.5513 14.0472 48.4286 15.8741C48.4721 15.9756 48.849 17.0413 49.1028 17.8243C49.052 17.3458 49.0013 16.8528 48.936 16.3743C48.7113 14.6706 48.3923 13.1265 48.1023 11.7563C47.9283 10.9805 47.7616 10.3063 47.5948 9.63209C46.8699 9.26961 44.028 7.77617 43.0565 6.57272C42.0851 5.36927 41.2151 3.62209 41.6066 2.07065C41.6932 1.70428 41.8558 1.36018 42.0838 1.06061C42.3119 0.761047 42.6002 0.512684 42.9303 0.331596C43.2603 0.150507 43.6247 0.0407259 43.9999 0.00935461C44.3751 -0.0220167 44.7526 0.0257212 45.1082 0.149479Z" fill="#637381"/>
<path d="M86.1991 35.1583C84.423 35.0858 80.8706 33.2661 80.8706 33.2661C80.8706 33.2661 82.7773 31.2869 82.915 31.1782C84.5027 29.9167 88.316 28.4016 90.2082 29.663C90.5175 29.8797 90.7776 30.1593 90.9714 30.4834C91.1652 30.8075 91.2884 31.1689 91.3329 31.544C91.3773 31.919 91.3421 32.2992 91.2295 32.6597C91.1169 33.0202 90.9295 33.3528 90.6795 33.6358C89.6645 34.8755 87.7143 35.2235 86.1991 35.1583Z" fill="#637381"/>
<g opacity="0.5">
<path d="M49.5083 18.3317C49.4648 18.3317 50.0158 15.6276 50.0665 15.4318C50.69 13.4962 53.0389 10.1323 55.3081 10.1395C55.6861 10.1502 56.0576 10.2404 56.3983 10.4044C56.7391 10.5683 57.0414 10.8023 57.2857 11.091C57.5299 11.3797 57.7105 11.7166 57.8157 12.0798C57.9209 12.4431 57.9483 12.8244 57.8962 13.1989C57.7295 14.7938 56.294 16.1568 54.9963 16.9398C53.4739 17.8895 49.5083 18.3317 49.5083 18.3317Z" fill="white"/>
<path d="M45.1077 0.149479C47.2826 0.917948 48.3121 4.87629 48.2396 6.9062C48.2396 7.0802 47.8336 9.80608 47.7974 9.80608H47.7539C47.9206 10.4296 48.1018 11.1038 48.2831 11.8432C48.6021 13.2062 48.9501 14.7431 49.2183 16.4541C49.5293 18.2868 49.7327 20.1363 49.8273 21.9928C49.9429 24.0732 49.8725 26.1597 49.617 28.2276C49.6137 28.2516 49.6137 28.276 49.617 28.3001C49.8998 27.6984 50.7407 26.0309 50.8132 25.9149C51.9297 24.2185 55.0761 21.5651 57.2727 22.1958C57.6334 22.3058 57.9668 22.4906 58.2512 22.7382C58.5357 22.9857 58.7647 23.2905 58.9234 23.6325C59.0821 23.9746 59.1669 24.3462 59.1723 24.7233C59.1777 25.1003 59.1035 25.4743 58.9546 25.8207C58.3747 27.3141 56.6347 28.2493 55.1776 28.6626C53.5319 29.1338 49.8635 28.5828 49.5735 28.5321C49.2635 30.6309 48.813 32.7066 48.2251 34.7451C47.8868 35.934 47.5194 37.1206 47.1231 38.3047C47.3769 37.7899 47.6161 37.3332 47.6524 37.2752C48.7688 35.5715 51.9224 32.9254 54.1118 33.5561C54.4725 33.6661 54.8059 33.8509 55.0904 34.0985C55.3748 34.346 55.6038 34.6508 55.7626 34.9928C55.9213 35.3349 56.0061 35.7065 56.0115 36.0836C56.0168 36.4606 55.9427 36.8345 55.7938 37.181C55.2138 38.6744 53.4739 39.6096 52.0167 40.0229C50.5595 40.4361 47.3986 40.0229 46.5722 39.9141L46.1154 41.2771C45.3905 43.452 44.6002 45.6269 43.9405 47.7583C43.7013 48.4833 43.491 49.2662 43.2808 50.0202C43.5128 49.5635 43.7085 49.1792 43.7448 49.1212C44.854 47.4248 48.0076 44.7714 50.197 45.4021C50.557 45.5133 50.8897 45.6987 51.1737 45.9463C51.4577 46.1939 51.6866 46.4983 51.8458 46.8398C52.0049 47.1813 52.0907 47.5524 52.0977 47.9291C52.1047 48.3058 52.0326 48.6798 51.8862 49.027C51.3062 50.5277 49.559 51.4556 48.1018 51.8761C46.6446 52.2966 43.7955 51.9269 42.8096 51.7891C42.6138 52.5648 42.4253 53.3406 42.2731 54.1018C42.1788 54.631 42.0556 55.124 41.9903 55.6532L41.7728 57.2119C41.6713 58.2051 41.5554 59.2273 41.4829 60.1988C41.4249 60.873 41.3814 61.5182 41.3379 62.1707C41.5699 61.4457 42.0628 59.945 42.0628 59.829C42.8657 58.2341 44.0637 56.8713 45.5427 55.8707C45.6215 55.6859 45.7213 55.5108 45.8399 55.3487C46.0452 55.032 46.315 54.7621 46.6316 54.5568C46.9483 54.3514 47.3048 54.2152 47.6777 54.1571C48.0506 54.0989 48.4316 54.1201 48.7958 54.2193C49.1599 54.3184 49.4991 54.4933 49.791 54.7325C51.5165 56.2187 51.0815 60.293 50.2912 62.1634C50.2477 62.2722 49.6025 63.4104 49.1893 64.1281C49.501 63.7439 49.791 63.3669 50.1173 62.9827C50.748 62.2069 51.4005 61.453 52.0964 60.641L53.1621 59.4883C53.5101 59.0968 53.9306 58.7633 54.3148 58.3356C55.221 57.4584 56.1853 56.6102 57.1785 55.7765C56.5042 55.2255 54.1263 53.2246 53.4449 51.8616C52.7634 50.4987 52.2777 48.592 52.9881 47.1493C53.1444 46.8053 53.3712 46.4979 53.6539 46.2471C53.9365 45.9963 54.2687 45.8078 54.629 45.6936C54.9892 45.5795 55.3694 45.5423 55.7449 45.5845C56.1204 45.6267 56.4828 45.7473 56.8087 45.9386C58.7299 47.1493 58.9256 51.2454 58.4254 53.1883C58.4254 53.3116 57.8744 54.6818 57.5772 55.4285C58.1789 54.9355 58.7734 54.4425 59.3969 53.9785C61.1948 52.5938 63.058 51.2381 64.9067 49.8825L66.5958 48.6355C66.3566 48.4398 63.4857 46.1199 62.7172 44.5902C62.043 43.2345 61.55 41.3205 62.2605 39.8851C62.4159 39.5403 62.6422 39.2321 62.9248 38.9807C63.2073 38.7292 63.5397 38.5402 63.9002 38.426C64.2608 38.3117 64.6414 38.2748 65.0172 38.3176C65.393 38.3604 65.7555 38.482 66.0811 38.6744C68.0095 39.8779 68.198 43.9739 67.6978 45.9241C67.6615 46.0691 66.9148 48.041 66.7046 48.534C67.937 47.6133 69.1622 46.6853 70.3294 45.7139C71.9175 44.4193 73.419 43.0219 74.8242 41.5308C74.7155 41.4365 71.7069 39.0296 70.9239 37.471C70.2424 36.1153 69.7567 34.1941 70.4672 32.7587C70.6227 32.4148 70.8487 32.1076 71.1307 31.8568C71.4127 31.6061 71.7443 31.4175 72.104 31.3033C72.4636 31.1891 72.8433 31.1519 73.2183 31.1941C73.5933 31.2362 73.9552 31.3568 74.2805 31.5479C76.2089 32.7586 76.4047 36.8547 75.9045 38.7977C75.9045 38.9281 75.3027 40.4288 75.02 41.1393L75.1287 41.2118C76.5021 39.6705 77.7369 38.0112 78.8188 36.253C79.4278 35.2888 79.9498 34.3391 80.4428 33.4039C79.8338 33.0124 77.0862 31.1927 76.2234 29.866C75.3607 28.5393 74.7083 26.7414 75.252 25.2335C75.3685 24.874 75.5595 24.5431 75.8124 24.2624C76.0653 23.9817 76.3746 23.7574 76.72 23.6042C77.0654 23.451 77.4392 23.3723 77.8171 23.3732C78.195 23.3741 78.5684 23.4546 78.9131 23.6095C80.9647 24.6027 81.6027 28.6843 81.32 30.6635C81.32 30.7722 81.03 31.8669 80.8198 32.6572C81.03 32.2294 81.262 31.7944 81.4577 31.3812C82.1827 29.837 82.7989 28.3726 83.3064 27.0314C83.5964 26.3064 83.8356 25.6177 84.0314 24.9797C83.6326 24.2547 82.0812 21.4709 81.929 19.9049C81.7767 18.339 82.0232 16.4396 83.2049 15.3521C83.474 15.0873 83.7957 14.8821 84.1493 14.7499C84.5029 14.6176 84.8804 14.5613 85.2572 14.5846C85.6339 14.6078 86.0016 14.7101 86.3363 14.8848C86.6709 15.0595 86.965 15.3027 87.1995 15.5986C88.5624 17.4183 87.2647 21.3114 86.0903 22.9643C85.9888 23.1093 84.1401 25.1392 84.1184 25.1392V25.0957C83.9154 25.7119 83.6979 26.3717 83.4369 27.0821C82.9584 28.4016 82.4002 29.8805 81.6825 31.432C80.9237 33.1295 80.0693 34.7827 79.1233 36.3835C78.0676 38.1791 76.8546 39.8773 75.4985 41.4583L75.4477 41.5163C76.0132 41.1683 77.6226 40.2403 77.7604 40.1823C79.6308 39.3849 83.7051 38.9354 85.1986 40.6463C85.439 40.9375 85.6153 41.276 85.7162 41.6399C85.8171 42.0037 85.8403 42.3847 85.7842 42.7581C85.7281 43.1315 85.5941 43.4889 85.3908 43.807C85.1874 44.1252 84.9194 44.3969 84.6041 44.6047C83.2919 45.5326 81.3272 45.3296 79.8773 44.8947C78.2461 44.3727 75.5275 41.8933 75.281 41.6903C73.865 43.27 72.3439 44.7523 70.7282 46.1271C69.793 46.9318 68.8215 47.7148 67.8283 48.4905C68.3285 48.2005 68.778 47.9468 68.8432 47.9178C70.7064 47.1203 74.7807 46.6708 76.2742 48.3818C76.5157 48.6725 76.693 49.0109 76.7945 49.3749C76.8961 49.739 76.9195 50.1203 76.8634 50.4941C76.8073 50.8678 76.6728 51.2254 76.4688 51.5436C76.2648 51.8617 75.9959 52.1331 75.6797 52.3401C74.3748 53.2681 72.4029 53.0651 70.9602 52.6301C69.5175 52.1951 67.1033 50.0927 66.4798 49.5345C66.0956 49.8244 65.7549 50.1217 65.3416 50.4189C63.522 51.8109 61.7168 53.1956 59.9406 54.6165C59.3244 55.1095 58.7372 55.6242 58.1427 56.1389L59.0271 55.646C60.8903 54.8485 64.9646 54.3918 66.4581 56.1027C66.6986 56.3945 66.8751 56.7336 66.976 57.098C67.077 57.4624 67.1002 57.8439 67.0442 58.2179C66.9881 58.5919 66.854 58.9498 66.6506 59.2686C66.4473 59.5874 66.1791 59.8598 65.8636 60.0683C64.5587 60.9962 62.5867 60.7932 61.1441 60.351C59.7014 59.9088 57.5192 58.0166 56.7942 57.3569C56.207 57.9006 55.6125 58.4443 55.0688 58.9953C54.6991 59.3796 54.3438 59.7203 53.9813 60.1335L52.9374 61.308C52.3067 62.0837 51.6469 62.8739 51.0452 63.6424C50.6247 64.1716 50.2333 64.6863 49.8418 65.2083C50.4435 64.7008 51.6614 63.7584 51.7702 63.6714C53.4884 62.5984 57.454 61.4965 59.1866 63.0044C59.4674 63.2566 59.692 63.5652 59.8457 63.9099C59.9995 64.2546 60.0789 64.6279 60.0789 65.0053C60.0789 65.3828 59.9995 65.756 59.8457 66.1008C59.692 66.4455 59.4674 66.754 59.1866 67.0062C58.0267 68.1227 56.0548 68.2387 54.5613 68.0067C52.9084 67.7457 49.9215 65.8318 49.5518 65.5563C48.8993 66.419 48.2758 67.2527 47.6959 68.0575C45.6877 70.8341 44.1218 73.2265 43.0488 74.9084L42.94 75.0824L41.5481 74.4082L41.7656 74.0747C42.8893 72.3928 44.5277 70.0149 46.6156 67.26C47.2754 66.3828 47.9931 65.4621 48.7398 64.5269C47.9633 63.6783 47.237 62.7851 46.5649 61.8517C44.9627 62.4824 41.6424 62.5042 41.2074 62.5042C41.1421 63.5771 41.0841 64.6283 41.0406 65.6143C40.8956 69.0362 40.9101 71.8925 40.9464 73.8935V74.1255L39.4167 73.4005C39.4167 71.4141 39.4964 68.7317 39.6994 65.5563C39.7647 64.4689 39.8589 63.3017 39.9677 62.1055C39.5399 61.9967 36.0818 61.1122 34.7769 60.0683C33.5952 59.1186 32.3482 57.5889 32.3917 55.9794C32.3888 55.6019 32.4655 55.2279 32.6166 54.8819C32.7678 54.5359 32.9901 54.2256 33.2691 53.9713C33.5481 53.7169 33.8776 53.5241 34.236 53.4054C34.5945 53.2868 34.9739 53.2449 35.3496 53.2826C37.6043 53.5725 39.4964 57.2119 39.8662 59.2056C39.8662 59.3288 39.9822 60.6555 40.0257 61.453C40.0764 60.9672 40.1127 60.4888 40.1707 60.003C40.2649 59.0098 40.3954 58.0239 40.5331 56.9582C40.6129 56.4434 40.6999 55.9287 40.7796 55.4067C40.8594 54.8847 40.9971 54.3483 41.1059 53.8118C41.3814 52.5793 41.7148 51.3396 42.0846 50.0999C41.2146 50.0129 38.1335 49.6505 36.814 48.8892C35.4946 48.128 34.0302 46.8086 33.8344 45.2136C33.7738 44.8406 33.7925 44.4589 33.8893 44.0936C33.9861 43.7282 34.1588 43.3873 34.3961 43.0932C34.6335 42.7991 34.9302 42.5583 35.2669 42.3865C35.6035 42.2147 35.9726 42.1158 36.3501 42.0963C38.6192 42.0455 41.0406 45.3514 41.7076 47.2726C41.7511 47.3885 42.0773 48.8167 42.2441 49.607C42.4688 48.882 42.6863 48.1208 42.969 47.374C43.694 45.1991 44.5132 43.075 45.3107 40.9218C45.5572 40.2621 45.7892 39.6024 46.0357 38.9426C45.7239 38.9426 42.0483 38.5584 40.5694 37.7102C39.2572 36.9852 37.7928 35.6295 37.5898 34.0346C37.5303 33.6617 37.5499 33.2805 37.6471 32.9156C37.7443 32.5507 37.9171 32.2103 38.1543 31.9164C38.3914 31.6226 38.6876 31.3818 39.0237 31.2096C39.3599 31.0375 39.7284 30.9379 40.1054 30.9172C42.3818 30.8665 44.8032 34.1723 45.4702 36.0935C45.5209 36.2385 45.9849 38.2684 46.0792 38.8194C46.6011 37.3695 47.1159 35.9195 47.5291 34.4696C48.1422 32.5121 48.6266 30.5166 48.9791 28.4958C48.8341 28.4958 44.999 28.1333 43.4838 27.2634C42.1643 26.5384 40.6999 25.1827 40.5041 23.5878C40.4435 23.2151 40.4622 22.8338 40.559 22.4688C40.6559 22.1039 40.8287 21.7635 41.0661 21.4699C41.3036 21.1763 41.6004 20.9362 41.937 20.7652C42.2737 20.5942 42.6427 20.4962 43.0198 20.4776C45.289 20.4197 47.7104 23.7255 48.3773 25.6467C48.4208 25.7699 48.7833 27.3359 48.9356 28.0898H49.0588C49.3582 26.0478 49.4747 23.9831 49.4068 21.9203C49.4068 20.7821 49.298 19.7019 49.1893 18.6507C48.4643 18.6507 45.173 18.6507 43.723 18.02C42.2731 17.3893 40.7289 16.2583 40.3519 14.6996C40.2513 14.3345 40.229 13.9523 40.2864 13.5779C40.3438 13.2036 40.4796 12.8456 40.6849 12.5273C40.8902 12.2091 41.1604 11.9378 41.4778 11.7312C41.7952 11.5246 42.1527 11.3874 42.5268 11.3285C44.7815 11.0168 47.5509 14.0472 48.4281 15.8741C48.4716 15.9756 48.8486 17.0413 49.1023 17.8243C49.0515 17.3458 49.0008 16.8528 48.9356 16.3743C48.7108 14.6706 48.3918 13.1265 48.1018 11.7563C47.9278 10.9805 47.7611 10.3063 47.5944 9.63209C46.8694 9.26961 44.0275 7.77617 43.056 6.57272C42.0846 5.36927 41.2146 3.62209 41.6061 2.07065C41.6927 1.70428 41.8553 1.36018 42.0834 1.06061C42.3114 0.761047 42.5997 0.512684 42.9298 0.331596C43.2599 0.150507 43.6243 0.0407259 43.9994 0.00935461C44.3746 -0.0220167 44.7522 0.0257212 45.1077 0.149479Z" fill="white"/>
<path d="M86.1986 35.1583C84.4225 35.0858 80.8701 33.2661 80.8701 33.2661C80.8701 33.2661 82.7768 31.2869 82.9145 31.1782C84.5022 29.9167 88.3156 28.4016 90.2077 29.663C90.517 29.8797 90.7771 30.1593 90.9709 30.4834C91.1647 30.8075 91.2879 31.1689 91.3324 31.544C91.3769 31.919 91.3416 32.2992 91.229 32.6597C91.1164 33.0202 90.929 33.3528 90.679 33.6358C89.664 34.8755 87.7138 35.2235 86.1986 35.1583Z" fill="white"/>
</g>
<path d="M65.4578 79.6425C65.4578 79.6425 54.6775 53.6596 48.6457 54.7905C42.614 55.9215 58.991 96.2153 58.991 96.2153C58.991 96.2153 40.0258 60.438 27.0923 60.438C14.1589 60.438 31.8336 99.9779 48.2542 113.158C48.2542 113.158 22.3873 85.29 7.30064 91.3145C-7.78599 97.339 37.4377 125.569 37.4377 125.569C37.4377 125.569 11.143 117.297 14.1806 123.706C17.2182 130.115 25.3887 131.231 25.3887 131.231L32.3049 132.739H70.0033L75.8031 130.485C75.8031 130.485 99.9446 118.428 93.4779 113.535C87.0111 108.641 72.7872 119.182 72.7872 119.182C72.7872 119.182 97.3565 92.0685 92.6152 81.9044C87.8739 71.7403 66.7482 100.355 66.7482 100.355C66.7482 100.355 83.9953 63.8237 80.5226 57.4222C77.05 51.0207 65.4578 79.6425 65.4578 79.6425Z" fill="#637381"/>
<path opacity="0.4" d="M65.4578 79.6425C65.4578 79.6425 54.6775 53.6596 48.6457 54.7905C42.614 55.9215 58.991 96.2153 58.991 96.2153C58.991 96.2153 40.0258 60.438 27.0923 60.438C14.1589 60.438 31.8336 99.9779 48.2542 113.158C48.2542 113.158 22.3873 85.29 7.30064 91.3145C-7.78599 97.339 37.4377 125.569 37.4377 125.569C37.4377 125.569 11.143 117.297 14.1806 123.706C17.2182 130.115 25.3887 131.231 25.3887 131.231L36.6547 132.739H67.1034L75.8031 130.485C75.8031 130.485 99.9446 118.428 93.4779 113.535C87.0111 108.641 72.7872 119.182 72.7872 119.182C72.7872 119.182 97.3565 92.0685 92.6152 81.9044C87.8739 71.7403 66.7482 100.355 66.7482 100.355C66.7482 100.355 83.9953 63.8237 80.5226 57.4222C77.05 51.0207 65.4578 79.6425 65.4578 79.6425Z" fill="white"/>
<path d="M68.9084 81.0127C59.4258 109.033 59.4258 128.861 59.4258 128.861C59.4258 128.861 70.6338 129.296 82.2696 120.669" stroke="#263238" stroke-linecap="round" stroke-linejoin="round"/>
<path d="M64.2034 96.0993C62.2467 87.7232 59.651 79.5094 56.439 71.53" stroke="#263238" stroke-linecap="round" stroke-linejoin="round"/>
<path d="M36.1475 79.715L60.2817 115.5C60.2817 115.5 76.6661 101.725 82.2701 93.9461" stroke="#263238" stroke-linecap="round" stroke-linejoin="round"/>
<path d="M59.8535 124.119C59.8535 124.119 34.4215 112.049 24.0762 105.154" stroke="#263238" stroke-linecap="round" stroke-linejoin="round"/>
<path d="M136.416 21.6304H131.175V240.057H136.416V21.6304Z" fill="#C2C2C2" stroke="#ABABAB" stroke-linecap="round" stroke-linejoin="round"/>
<path d="M42.1273 21.6304H36.8857V240.057H42.1273V21.6304Z" fill="#C2C2C2" stroke="#ABABAB" stroke-linecap="round" stroke-linejoin="round"/>
<path d="M89.2723 21.6304H84.0308V240.057H89.2723V21.6304Z" fill="#C2C2C2" stroke="#ABABAB" stroke-linecap="round" stroke-linejoin="round"/>
<path d="M183.555 21.6304H178.313V240.057H183.555V21.6304Z" fill="#C2C2C2" stroke="#ABABAB" stroke-linecap="round" stroke-linejoin="round"/>
<path d="M181.981 28.4379H35.1963V38.3917H181.981V28.4379Z" fill="#C2C2C2" stroke="#ABABAB" stroke-linecap="round" stroke-linejoin="round"/>
<path d="M181.981 28.4379H87.5176V38.3917H181.981V28.4379Z" fill="#A6A6A6" stroke="#ABABAB" stroke-linecap="round" stroke-linejoin="round"/>
<path d="M181.981 128.665H35.1963V138.619H181.981V128.665Z" fill="#C2C2C2" stroke="#ABABAB" stroke-linecap="round" stroke-linejoin="round"/>
<path d="M181.981 128.665H87.5176V138.619H181.981V128.665Z" fill="#A6A6A6" stroke="#ABABAB" stroke-linecap="round" stroke-linejoin="round"/>
<path d="M181.981 228.885H35.1963V238.839H181.981V228.885Z" fill="#C2C2C2" stroke="#ABABAB" stroke-linecap="round" stroke-linejoin="round"/>
<path d="M181.981 228.885H87.5176V238.839H181.981V228.885Z" fill="#A6A6A6" stroke="#ABABAB" stroke-linecap="round" stroke-linejoin="round"/>
<path d="M87.54 175.447H10.7222V239.977H87.54V175.447Z" fill="#637381"/>
<path opacity="0.6" d="M87.5405 175.447H10.7227V239.977H87.5405V175.447Z" fill="white" stroke="#696969" stroke-linecap="round" stroke-linejoin="round"/>
<path d="M87.54 175.447H10.7222V239.977H87.54V175.447Z" stroke="#696969" stroke-linecap="round" stroke-linejoin="round"/>
<path d="M87.5399 175.447H62.0137V239.977H87.5399V175.447Z" fill="#637381"/>
<path opacity="0.39" d="M87.5399 175.447H62.0137V239.977H87.5399V175.447Z" fill="white" stroke="#696969" stroke-linecap="round" stroke-linejoin="round"/>
<path d="M87.5399 175.447H62.0137V239.977H87.5399V175.447Z" stroke="#696969" stroke-linecap="round" stroke-linejoin="round"/>
<path d="M75.0415 175.621V240.057" stroke="#696969" stroke-linecap="round" stroke-linejoin="round"/>
<path d="M91.4184 111.019H14.6006V175.549H91.4184V111.019Z" fill="#637381"/>
<path opacity="0.6" d="M91.418 111.019H14.6001V175.549H91.418V111.019Z" fill="white" stroke="#696969" stroke-linecap="round" stroke-linejoin="round"/>
<path d="M91.4184 111.019H14.6006V175.549H91.4184V111.019Z" stroke="#696969" stroke-linecap="round" stroke-linejoin="round"/>
<path d="M91.4183 111.019H65.8921V175.549H91.4183V111.019Z" fill="#637381"/>
<path opacity="0.39" d="M91.4188 111.019H65.8926V175.549H91.4188V111.019Z" fill="white" stroke="#696969" stroke-linecap="round" stroke-linejoin="round"/>
<path d="M91.4183 111.019H65.8921V175.549H91.4183V111.019Z" stroke="#696969" stroke-linecap="round" stroke-linejoin="round"/>
<path d="M78.9204 111.193V175.629" stroke="#696969" stroke-linecap="round" stroke-linejoin="round"/>
<path d="M291.322 175.447H214.504V239.977H291.322V175.447Z" fill="#637381"/>
<path opacity="0.6" d="M291.322 175.447H214.504V239.977H291.322V175.447Z" fill="white" stroke="#919191" stroke-linecap="round" stroke-linejoin="round"/>
<path d="M291.322 175.447H214.504V239.977H291.322V175.447Z" stroke="#919191" stroke-linecap="round" stroke-linejoin="round"/>
<path d="M291.322 175.447H265.795V239.977H291.322V175.447Z" fill="#637381"/>
<path opacity="0.39" d="M291.322 175.447H265.795V239.977H291.322V175.447Z" fill="white" stroke="#919191" stroke-linecap="round" stroke-linejoin="round"/>
<path d="M291.322 175.447H265.795V239.977H291.322V175.447Z" stroke="#919191" stroke-linecap="round" stroke-linejoin="round"/>
<path d="M278.823 175.621V240.057" stroke="#919191" stroke-linecap="round" stroke-linejoin="round"/>
<path d="M291.322 110.852H214.504V175.382H291.322V110.852Z" fill="#637381"/>
<path opacity="0.6" d="M291.322 110.852H214.504V175.382H291.322V110.852Z" fill="white" stroke="#919191" stroke-linecap="round" stroke-linejoin="round"/>
<path d="M291.322 110.852H214.504V175.382H291.322V110.852Z" stroke="#919191" stroke-linecap="round" stroke-linejoin="round"/>
<path d="M291.322 110.852H265.795V175.382H291.322V110.852Z" fill="#637381"/>
<path opacity="0.39" d="M291.322 110.852H265.795V175.382H291.322V110.852Z" fill="white" stroke="#919191" stroke-linecap="round" stroke-linejoin="round"/>
<path d="M291.322 110.852H265.795V175.382H291.322V110.852Z" stroke="#919191" stroke-linecap="round" stroke-linejoin="round"/>
<path d="M278.823 111.026V175.462" stroke="#919191" stroke-linecap="round" stroke-linejoin="round"/>
<path d="M284.572 57.4221H221.029V110.802H284.572V57.4221Z" fill="#637381"/>
<path opacity="0.6" d="M284.572 57.4221H221.029V110.802H284.572V57.4221Z" fill="white" stroke="#919191" stroke-linecap="round" stroke-linejoin="round"/>
<path d="M284.572 57.4221H221.029V110.802H284.572V57.4221Z" stroke="#919191" stroke-linecap="round" stroke-linejoin="round"/>
<path d="M284.573 57.4221H263.461V110.802H284.573V57.4221Z" fill="#637381"/>
<path opacity="0.39" d="M284.573 57.4221H263.462V110.802H284.573V57.4221Z" fill="white" stroke="#919191" stroke-linecap="round" stroke-linejoin="round"/>
<path d="M284.573 57.4221H263.461V110.802H284.573V57.4221Z" stroke="#919191" stroke-linecap="round" stroke-linejoin="round"/>
<path d="M274.235 57.5671V110.867" stroke="#919191" stroke-linecap="round" stroke-linejoin="round"/>
<path d="M276.446 215.719H266.492V221.947H276.446V215.719Z" fill="white" stroke="#263238" stroke-linecap="round" stroke-linejoin="round"/>
<path d="M182.779 240.057C186.103 240.057 188.797 237.363 188.797 234.039C188.797 230.716 186.103 228.022 182.779 228.022C179.456 228.022 176.762 230.716 176.762 234.039C176.762 237.363 179.456 240.057 182.779 240.057Z" fill="#263238" stroke="#263238" stroke-linecap="round" stroke-linejoin="round"/>
<path d="M281.796 134.443H278.243V234.177H281.796V134.443Z" fill="#263238" stroke="#263238" stroke-linecap="round" stroke-linejoin="round"/>
<path d="M279.903 169.329L271.501 162.644C267.927 159.796 265.246 155.982 263.778 151.655C262.309 147.328 262.113 142.67 263.215 138.235C263.539 136.94 264.285 135.79 265.335 134.967C266.385 134.144 267.68 133.694 269.014 133.689H290.764C292.099 133.692 293.395 134.14 294.445 134.964C295.496 135.788 296.242 136.939 296.563 138.235C297.667 142.669 297.473 147.327 296.005 151.654C294.537 155.981 291.857 159.796 288.284 162.644L279.903 169.329ZM269.029 137.089C268.448 137.087 267.884 137.28 267.426 137.638C266.968 137.996 266.644 138.497 266.506 139.061C265.559 142.862 265.724 146.855 266.982 150.565C268.241 154.274 270.539 157.544 273.603 159.984L279.889 164.986L286.182 159.984C289.247 157.544 291.547 154.275 292.808 150.566C294.069 146.857 294.238 142.863 293.294 139.061C293.154 138.498 292.83 137.997 292.373 137.64C291.915 137.282 291.351 137.088 290.771 137.089H269.029Z" fill="#263238"/>
<path d="M259.046 218.837H149.046V231.64H259.046V218.837Z" fill="white"/>
<path opacity="0.28" d="M259.047 218.837H149.047V231.64H259.047V218.837Z" fill="black" stroke="#263238" stroke-linecap="round" stroke-linejoin="round"/>
<path d="M259.046 218.837H149.046V231.64H259.046V218.837Z" stroke="#263238" stroke-linecap="round" stroke-linejoin="round"/>
<path d="M161.371 218.837H149.046V231.64H161.371V218.837Z" stroke="#263238" stroke-linecap="round" stroke-linejoin="round"/>
<path d="M259.039 218.837H246.714V231.64H259.039V218.837Z" stroke="#263238" stroke-linecap="round" stroke-linejoin="round"/>
<path d="M210.205 218.837H197.881V231.64H210.205V218.837Z" stroke="#263238" stroke-linecap="round" stroke-linejoin="round"/>
<path d="M259.046 231.64H266.63L276.112 195.601H268.529L259.046 231.64Z" fill="white" stroke="#263238" stroke-linecap="round" stroke-linejoin="round"/>
<path d="M285 210.775H275.046V226.898H285V210.775Z" fill="white" stroke="#263238" stroke-linecap="round" stroke-linejoin="round"/>
<path d="M277.583 240.057C277.019 240.047 276.481 239.819 276.082 239.42C275.682 239.021 275.454 238.482 275.445 237.918V229.893C275.454 229.328 275.682 228.79 276.082 228.391C276.481 227.992 277.019 227.763 277.583 227.754V227.754C278.148 227.763 278.686 227.992 279.085 228.391C279.485 228.79 279.713 229.328 279.722 229.893V237.94C279.707 238.5 279.477 239.033 279.078 239.428C278.68 239.822 278.144 240.048 277.583 240.057V240.057Z" fill="#263238"/>
<path d="M282.666 240.057C282.102 240.047 281.563 239.819 281.164 239.42C280.765 239.021 280.537 238.482 280.527 237.918V229.893C280.537 229.328 280.765 228.79 281.164 228.391C281.563 227.992 282.102 227.763 282.666 227.754V227.754C283.237 227.754 283.784 227.978 284.191 228.378C284.598 228.778 284.831 229.322 284.841 229.893V237.94C284.826 238.506 284.59 239.045 284.184 239.44C283.777 239.836 283.233 240.057 282.666 240.057V240.057Z" fill="#263238"/>
<path d="M1 240.057H301" stroke="#263238" stroke-linecap="round" stroke-linejoin="round"/>
<path d="M104.504 261.001C133.428 261.001 156.876 258.151 156.876 254.636C156.876 251.12 133.428 248.271 104.504 248.271C75.5795 248.271 52.1318 251.12 52.1318 254.636C52.1318 258.151 75.5795 261.001 104.504 261.001Z" fill="#637381"/>
<path opacity="0.5" d="M104.504 261.001C133.428 261.001 156.876 258.151 156.876 254.636C156.876 251.12 133.428 248.271 104.504 248.271C75.5795 248.271 52.1318 251.12 52.1318 254.636C52.1318 258.151 75.5795 261.001 104.504 261.001Z" fill="white"/>
<path d="M212.88 254.614C212.88 256.368 201.186 257.789 186.781 257.789C172.375 257.789 160.682 256.339 160.682 254.614C160.682 252.889 172.368 251.446 186.781 251.446C201.193 251.446 212.88 252.889 212.88 254.614Z" fill="#637381"/>
<path opacity="0.5" d="M212.88 254.614C212.88 256.368 201.186 257.789 186.781 257.789C172.375 257.789 160.682 256.339 160.682 254.614C160.682 252.889 172.368 251.446 186.781 251.446C201.193 251.446 212.88 252.889 212.88 254.614Z" fill="white"/>
<path d="M114.951 44.9454C114.951 44.9454 110.898 41.7627 106.251 43.3504C101.604 44.9381 98.0805 52.6808 96.8263 58.9735C95.5722 65.2663 90.7511 70.0366 91.9111 77.4168C93.071 84.797 101.459 85.9497 111.587 87.0371C121.715 88.1246 127.21 86.8921 131.98 80.2369C136.75 73.5817 134.728 65.4838 131.908 58.3211C129.088 51.1584 124.39 44.5104 120.482 43.2779C116.575 42.0455 114.951 44.9454 114.951 44.9454Z" fill="#263238" stroke="#263238" stroke-linecap="round" stroke-linejoin="round"/>
<path d="M98.2036 82.7961C98.8875 83.1036 99.5986 83.3464 100.328 83.5211" stroke="white" stroke-linecap="round" stroke-linejoin="round"/>
<path d="M113.935 50.0999C112.284 53.7902 110.19 57.2665 107.701 60.4524C103.554 65.781 94.383 70.8123 93.7958 76.4018C93.7014 77.1501 93.767 77.91 93.9882 78.6311C94.2094 79.3522 94.5812 80.0182 95.079 80.5849" stroke="white" stroke-linecap="round" stroke-linejoin="round"/>
<path d="M130.762 76.8295C130.462 77.5312 130.077 78.1934 129.616 78.8014" stroke="white" stroke-linecap="round" stroke-linejoin="round"/>
<path d="M127.275 62.8231C127.275 62.8231 131.936 68.2024 131.487 73.9442" stroke="white" stroke-linecap="round" stroke-linejoin="round"/>
<path d="M113.051 47.1348C111.234 46.9499 109.399 47.2029 107.7 47.8727C106.001 48.5424 104.487 49.6094 103.285 50.9844C103.119 51.1729 102.966 51.3614 102.821 51.5499" stroke="white" stroke-linecap="round" stroke-linejoin="round"/>
<path d="M86.3067 183.784L85.4004 197.733C85.4004 197.733 81.5436 216.444 80.3256 224.158C79.1077 231.872 76.8748 243.602 76.4688 243.602C76.0628 243.602 69.4076 247.625 67.2762 250.909C65.1448 254.194 67.8489 255.586 70.8068 254.534C73.7647 253.483 77.781 250.511 79.0932 246.98C80.4054 243.45 81.0579 242.137 81.1449 241.565C81.2319 240.992 95.26 203.33 96.652 199.306C98.0439 195.282 101.002 183.465 101.002 183.465L107.896 160.078C107.896 160.078 115.276 184.125 115.363 185.191C115.45 186.257 122.99 247.72 123.338 250.018C123.686 252.316 123.585 253.954 124.977 254.447C126.369 254.94 129.653 254.94 131.378 254.94C133.103 254.94 139.092 255.847 142.042 255.107C144.993 254.368 145.326 253.875 143.275 252.396C141.223 250.917 129.827 249.974 128.775 245.668C128.688 245.342 128.609 182.074 128.609 182.074C128.609 182.074 127.623 161.151 125.984 155.25H88.0683L86.3067 183.784Z" fill="white" stroke="#263238" stroke-linecap="round" stroke-linejoin="round"/>
<path d="M70.7999 254.52C73.7506 253.447 77.7741 250.496 79.0863 246.966L79.3618 246.241C77.6871 248.024 75.012 250.503 75.012 250.503C74.848 249.662 74.4823 248.874 73.9463 248.205C73.7124 247.947 73.4128 247.758 73.0795 247.657C72.7462 247.556 72.3918 247.548 72.0541 247.633L74.954 244.443C72.7791 245.791 68.8642 248.546 67.3273 250.917C65.1307 254.186 67.8275 255.586 70.7999 254.52Z" fill="#263238" stroke="#263238" stroke-linecap="round" stroke-linejoin="round"/>
<path d="M143.224 252.381C141.818 251.373 136.04 250.612 132.183 248.85C132.024 248.986 131.899 249.157 131.82 249.351C131.576 250.046 131.384 250.758 131.248 251.482L123.273 249.778V250.003C123.599 252.301 123.519 253.94 124.911 254.433C126.303 254.926 129.587 254.926 131.313 254.926C133.038 254.926 139.027 255.832 141.977 255.092C144.928 254.353 145.305 253.889 143.224 252.381Z" fill="#263238" stroke="#263238" stroke-linecap="round" stroke-linejoin="round"/>
<path d="M97.3552 121.219C97.3552 121.219 93.5926 122.952 89.0398 131.13C84.0593 140.054 84.9147 145.013 84.8422 155.779C84.7697 166.545 84.5522 184.415 84.5522 184.415C84.5522 184.415 98.3267 188.105 108.208 187.525C118.089 186.945 130.624 184.705 130.624 184.705C130.624 184.705 127.949 148.254 125.419 137.771C122.889 127.287 121.366 122.546 121.366 122.546C116.476 123.225 111.521 123.298 106.613 122.764C98.2252 121.944 97.3552 121.219 97.3552 121.219Z" fill="#263238" stroke="#263238" stroke-linecap="round" stroke-linejoin="round"/>
<path d="M113.203 153.459C113.58 154.699 113.928 155.953 114.233 157.207" stroke="white" stroke-linecap="round" stroke-linejoin="round"/>
<path d="M104.468 132.942C107.388 138.331 109.894 143.934 111.964 149.704" stroke="white" stroke-linecap="round" stroke-linejoin="round"/>
<path d="M189.709 114.289C189.274 113.999 182.148 112.882 182.148 112.882L180.756 112.31C180.756 112.31 189.383 112.998 189.455 112.636C189.528 112.273 189.818 111.838 189.238 111.766C188.658 111.693 177.559 109.439 177.559 109.439C177.559 109.439 180.379 106.771 180.741 106.191C181.104 105.611 181.604 104.451 181.024 104.451C180.444 104.451 180.299 104.813 179.509 105.321C178.719 105.828 175.601 107.061 174.731 107.779C173.861 108.496 171.266 110.381 171.266 110.381L141.122 106.234C141.122 106.234 130.537 93.1849 128.239 90.401C126.641 88.5432 124.823 86.8876 122.823 85.4712C120.605 84.4925 120.648 86.1309 120.648 86.1309L125.281 106.72C125.281 106.72 137.265 113.861 138.004 113.861C138.744 113.861 171.121 114.934 171.121 114.934C171.121 114.934 173.296 115.949 174.659 116.812C176.022 117.674 184.714 120.436 184.714 120.436C184.714 120.436 185.294 120.147 184.642 119.639C183.989 119.132 179.799 117.109 179.799 117.109L188.498 118.994C188.498 118.994 189.006 118.631 188.788 118.269C188.571 117.906 180.814 114.941 180.814 114.941L189.513 115.376C189.513 115.376 190.137 114.579 189.709 114.289Z" fill="white" stroke="#263238" stroke-linecap="round" stroke-linejoin="round"/>
<path d="M139.302 103.994C136.177 100.145 129.935 92.4599 128.239 90.401C126.641 88.5432 124.823 86.8876 122.823 85.4712C120.605 84.4925 120.648 86.1309 120.648 86.1309L125.281 106.72C125.281 106.72 130.689 109.939 134.459 112.056L139.302 103.994Z" fill="white" stroke="#263238" stroke-linecap="round" stroke-linejoin="round"/>
<path d="M107.265 83.7095C107.265 83.7095 100.973 83.9995 97.1158 88.2696C93.2589 92.5396 93.7157 101.935 95.3106 107.576C96.9055 113.216 98.9355 116.326 98.4932 118.283C98.051 120.241 96.4706 120.886 97.3333 122.691C98.196 124.496 103.191 126.454 112.014 126.164C120.837 125.874 122.504 123.989 122.577 122.336C122.649 120.683 121.997 119.298 122.214 118.283C122.432 117.268 128.797 111.628 128.797 105.408C128.797 99.1876 126.049 97.02 125.397 92.5324C124.744 88.0448 124.962 87.3996 122.287 85.4422C119.612 83.4848 110.81 82.4771 107.265 83.7095Z" fill="white" stroke="#263238" stroke-linecap="round" stroke-linejoin="round"/>
<path d="M104.409 105.27C102.306 107.03 99.9716 108.494 97.4712 109.62" stroke="#263238" stroke-linecap="round" stroke-linejoin="round"/>
<path d="M105.105 105.995C105.105 105.995 103.547 111.026 99.7261 113.803" stroke="#263238" stroke-linecap="round" stroke-linejoin="round"/>
<path d="M120.721 88.2623L121.446 95.2075L118.401 91.6624L120.721 88.2623Z" fill="white" stroke="#263238" stroke-linecap="round" stroke-linejoin="round"/>
<path d="M116.668 95.7876L120.721 88.2624L117.03 84.2896L116.668 95.7876Z" fill="white" stroke="#263238" stroke-linecap="round" stroke-linejoin="round"/>
<path d="M108.86 71.4141C109.492 73.9215 109.806 76.4984 109.796 79.0843C109.774 80.7586 109.605 82.4277 109.288 84.072L116.668 95.7876L118.763 84.913L120.141 77.3878C120.141 77.3878 111.753 76.9093 108.86 71.4141Z" fill="white" stroke="#263238" stroke-linecap="round" stroke-linejoin="round"/>
<path d="M116.234 89.4949L116.669 95.7876L114.501 92.3875L116.234 89.4949Z" fill="white" stroke="#263238" stroke-linecap="round" stroke-linejoin="round"/>
<path d="M106.831 83.7819L113.559 95.86L116.234 89.4947L109.078 79.6569L106.831 83.7819Z" fill="white" stroke="#263238" stroke-linecap="round" stroke-linejoin="round"/>
<path d="M224.697 89.415H163.647V139.51H224.697V89.415Z" fill="#637381"/>
<path opacity="0.2" d="M224.697 89.4152H163.647V139.511H224.697V89.4152Z" fill="black"/>
<path d="M224.697 89.415H163.647V139.51H224.697V89.415Z" stroke="#263238" stroke-linecap="round" stroke-linejoin="round"/>
<path d="M211.77 89.415H150.721V139.51H211.77V89.415Z" fill="#637381" stroke="#263238" stroke-linecap="round" stroke-linejoin="round"/>
<path d="M234.752 156.373C232.794 153.27 224.696 139.51 224.696 139.51H211.777L218.425 156.373H234.752Z" fill="#637381"/>
<path opacity="0.2" d="M234.752 156.373C232.794 153.27 224.696 139.51 224.696 139.51H211.777L218.425 156.373H234.752Z" fill="black"/>
<path d="M234.752 156.373C232.794 153.27 224.696 139.51 224.696 139.51H211.777L218.425 156.373H234.752Z" stroke="#263238" stroke-linecap="round" stroke-linejoin="round"/>
<path d="M140.629 156.373C142.586 153.27 150.677 139.51 150.677 139.51H163.603L156.955 156.373H140.629Z" fill="#637381" stroke="#263238" stroke-linecap="round" stroke-linejoin="round"/>
<path d="M150.677 139.51L145.058 156.373H208.819L211.777 139.51H150.677Z" fill="#637381" stroke="#263238" stroke-linecap="round" stroke-linejoin="round"/>
<path d="M232.555 107.539V124.315" stroke="#263238" stroke-linecap="round" stroke-linejoin="round"/>
<path d="M235.73 114.796V128.397" stroke="#263238" stroke-linecap="round" stroke-linejoin="round"/>
<path d="M144.16 124.315V134.74" stroke="#263238" stroke-linecap="round" stroke-linejoin="round"/>
<path d="M141.441 130.209V138.365" stroke="#263238" stroke-linecap="round" stroke-linejoin="round"/>
<path d="M96.7754 101.718C98.9389 104.168 101.45 106.288 104.228 108.011C108.578 110.613 124.527 119.654 125.781 120.161C127.036 120.669 165.126 114.448 165.126 114.448C165.126 114.448 167.301 115.463 168.671 116.326C170.041 117.189 178.726 119.951 178.726 119.951C178.726 119.951 179.306 119.661 178.654 119.161C178.001 118.66 173.811 116.623 173.811 116.623L182.51 118.508C182.51 118.508 183.018 118.146 182.8 117.783C182.583 117.421 174.826 114.456 174.826 114.456L183.525 114.891C183.525 114.891 184.178 114.093 183.743 113.803C183.308 113.513 174.398 111.483 174.398 111.483C174.398 111.483 183.873 110.686 183.946 110.323C184.018 109.961 184.308 109.533 183.728 109.46C183.148 109.388 171.288 108.228 171.288 108.228C171.288 108.228 174.398 106.278 174.76 105.698C175.123 105.118 175.63 103.958 175.05 103.958C174.47 103.958 174.325 104.32 173.535 104.828C172.745 105.335 169.628 106.568 168.758 107.286C167.888 108.003 165.285 109.895 165.285 109.895L130.429 109.968L108.788 92.8949" fill="white"/>
<path d="M96.7754 101.718C98.9389 104.168 101.45 106.288 104.228 108.011C108.578 110.613 124.527 119.654 125.781 120.161C127.036 120.669 165.126 114.448 165.126 114.448C165.126 114.448 167.301 115.463 168.671 116.326C170.041 117.189 178.726 119.951 178.726 119.951C178.726 119.951 179.306 119.661 178.654 119.161C178.001 118.66 173.811 116.623 173.811 116.623L182.51 118.508C182.51 118.508 183.018 118.146 182.8 117.783C182.583 117.421 174.826 114.456 174.826 114.456L183.525 114.891C183.525 114.891 184.178 114.093 183.743 113.803C183.308 113.513 174.398 111.483 174.398 111.483C174.398 111.483 183.873 110.686 183.946 110.323C184.018 109.961 184.308 109.533 183.728 109.46C183.148 109.388 171.288 108.228 171.288 108.228C171.288 108.228 174.398 106.278 174.76 105.698C175.123 105.118 175.63 103.958 175.05 103.958C174.47 103.958 174.325 104.32 173.535 104.828C172.745 105.335 169.628 106.568 168.758 107.286C167.888 108.003 165.285 109.895 165.285 109.895L130.429 109.968L108.788 92.8949" stroke="#263238" stroke-linecap="round" stroke-linejoin="round"/>
<path d="M183.714 109.46C183.141 109.388 171.273 108.228 171.273 108.228C171.273 108.228 174.384 106.278 174.746 105.698C175.108 105.118 175.616 103.958 175.036 103.958C174.456 103.958 174.311 104.32 173.521 104.828C172.731 105.335 169.613 106.568 168.743 107.285C167.873 108.003 165.271 109.895 165.271 109.895L130.414 109.968L126.55 106.901C125.1 109.446 122.389 114.216 120.627 117.363C123.338 118.871 125.39 119.994 125.803 120.161C127.036 120.668 165.147 114.448 165.147 114.448C165.147 114.448 167.322 115.463 168.692 116.326C170.063 117.189 178.748 119.951 178.748 119.951C178.748 119.951 179.328 119.661 178.675 119.161C178.023 118.66 173.833 116.623 173.833 116.623L182.532 118.508C182.532 118.508 183.04 118.146 182.822 117.783C182.605 117.421 174.847 114.455 174.847 114.455L183.547 114.89C183.547 114.89 184.2 114.093 183.765 113.803C183.33 113.513 174.398 111.483 174.398 111.483C174.398 111.483 183.873 110.686 183.946 110.323C184.018 109.961 184.294 109.533 183.714 109.46Z" fill="white" stroke="#263238" stroke-linecap="round" stroke-linejoin="round"/>
<path d="M125.347 65.3388C125.47 65.1888 125.633 65.0765 125.818 65.0148C126.002 64.9531 126.2 64.9445 126.389 64.9898C126.578 65.0352 126.75 65.1327 126.886 65.2713C127.022 65.4099 127.117 65.5841 127.159 65.7738C127.28 66.5602 127.24 67.3631 127.04 68.1334C126.841 68.9037 126.487 69.6252 125.999 70.2541C125.202 71.0516 124.477 71.2691 124.477 70.2541C124.678 68.6012 124.968 66.9604 125.347 65.3388V65.3388Z" fill="white" stroke="#263238" stroke-linecap="round" stroke-linejoin="round"/>
<path d="M116.444 52.6663C116.19 56.1944 114.68 59.5148 112.188 62.0256C109.867 64.3082 107.242 66.2599 104.388 67.8254C104.388 67.8254 104.808 70.0946 105.664 70.805C106.519 71.5155 108.216 71.3777 108.216 71.3777C109.202 74.0743 110.806 76.5025 112.899 78.468C116.299 81.5853 120.272 81.3026 122.541 76.6265C124.81 71.9505 125.948 67.2599 125.666 64.563L125.383 61.8661C125.383 61.8661 118.003 57.7701 116.444 52.6663Z" fill="white" stroke="#263238" stroke-linecap="round" stroke-linejoin="round"/>
<path d="M116.016 66.6872C116.376 66.6872 116.668 66.1679 116.668 65.5273C116.668 64.8866 116.376 64.3673 116.016 64.3673C115.655 64.3673 115.363 64.8866 115.363 65.5273C115.363 66.1679 115.655 66.6872 116.016 66.6872Z" fill="#263238"/>
<path d="M119.561 75.9451C119.922 75.9451 120.214 75.4258 120.214 74.7852C120.214 74.1446 119.922 73.6252 119.561 73.6252C119.201 73.6252 118.909 74.1446 118.909 74.7852C118.909 75.4258 119.201 75.9451 119.561 75.9451Z" fill="#263238"/>
<path d="M122.309 66.6872C122.67 66.6872 122.962 66.1679 122.962 65.5273C122.962 64.8866 122.67 64.3673 122.309 64.3673C121.949 64.3673 121.657 64.8866 121.657 65.5273C121.657 66.1679 121.949 66.6872 122.309 66.6872Z" fill="#263238"/>
<path d="M121.004 64.2948C120.754 65.1633 120.681 66.0726 120.786 66.9699C121.004 68.2024 122.019 70.2976 121.149 70.66C120.752 70.8411 120.313 70.9098 119.879 70.8587C119.446 70.8076 119.035 70.6386 118.691 70.3701" stroke="#263238" stroke-linecap="round" stroke-linejoin="round"/>
<path d="M114.131 63.432C114.131 63.432 114.479 61.2136 117.386 61.4674" stroke="#263238" stroke-linecap="round" stroke-linejoin="round"/>
<path d="M121.917 62.1489C121.917 62.1489 124.628 59.9739 125.506 63.954" stroke="#263238" stroke-linecap="round" stroke-linejoin="round"/>
</svg>
