<svg width="25" height="25" viewBox="0 0 25 25" fill="none" xmlns="http://www.w3.org/2000/svg">
<path d="M4.16667 18.75H20.8333C21.4062 18.75 21.875 18.2812 21.875 17.7083C21.875 17.1354 21.4062 16.6667 20.8333 16.6667H4.16667C3.59375 16.6667 3.125 17.1354 3.125 17.7083C3.125 18.2812 3.59375 18.75 4.16667 18.75ZM4.16667 13.5417H20.8333C21.4062 13.5417 21.875 13.0729 21.875 12.5C21.875 11.9271 21.4062 11.4583 20.8333 11.4583H4.16667C3.59375 11.4583 3.125 11.9271 3.125 12.5C3.125 13.0729 3.59375 13.5417 4.16667 13.5417ZM3.125 7.29167C3.125 7.86458 3.59375 8.33333 4.16667 8.33333H20.8333C21.4062 8.33333 21.875 7.86458 21.875 7.29167C21.875 6.71875 21.4062 6.25 20.8333 6.25H4.16667C3.59375 6.25 3.125 6.71875 3.125 7.29167Z" fill="#637381"/>
</svg>
